PathFileType	4	(X/Y/Z)	 2.2Hzlow3min.trc
DataRate	CameraRate	NumFrames	NumMarkers	Units	OrigDataRate	OrigDataStartFrame	OrigNumFrames
200	200	9	39	m	200	626	1000
Frame#	Time	C7			LSH			RSH			MAN			RASI			LASI			HIPR			HIPL			RPSI			LPSI			COX			RTHI1			RTHI2			RTHI3			RTHI4			RLKN			RMKN			RSHA1			RSHA2			RSHA3			RSHA4			RHEEL			RMET5			RMET1			RTOE			LTHI1			LTHI2			LTHI3			LTHI4			LLKN			LMKN			LSHA1			LSHA2			LSHA3			LSHA4			LHEEL			LMET5			LMET1			LTOE			
		X1	Y1	Z1	X2	Y2	Z2	X3	Y3	Z3	X4	Y4	Z4	X5	Y5	Z5	X6	Y6	Z6	X7	Y7	Z7	X8	Y8	Z8	X9	Y9	Z9	X10	Y10	Z10	X11	Y11	Z11	X12	Y12	Z12	X13	Y13	Z13	X14	Y14	Z14	X15	Y15	Z15	X16	Y16	Z16	X17	Y17	Z17	X18	Y18	Z18	X19	Y19	Z19	X20	Y20	Z20	X21	Y21	Z21	X22	Y22	Z22	X23	Y23	Z23	X24	Y24	Z24	X25	Y25	Z25	X26	Y26	Z26	X27	Y27	Z27	X28	Y28	Z28	X29	Y29	Z29	X30	Y30	Z30	X31	Y31	Z31	X32	Y32	Z32	X33	Y33	Z33	X34	Y34	Z34	X35	Y35	Z35	X36	Y36	Z36	X37	Y37	Z37	X38	Y38	Z38	X39	Y39	Z39	
626	3.1300	-0.253189	1.450039	-0.502487	-0.214682	1.438666	-0.699363	-0.193314	1.436204	-0.320088	-0.099115	1.410709	-0.521825	-0.113828	0.935696	-0.405277	-0.134513	0.940644	-0.639284	-0.186763	1.007048	-0.346545	-0.205013	1.015938	-0.678211	-0.299387	0.990287	-0.468491	-0.303947	0.995741	-0.545446	-0.302203	0.990146	-0.505757	-0.190110	0.756652	-0.322278	-0.170504	0.700797	-0.317407	-0.108451	0.720454	-0.320350	-0.121720	0.780188	-0.326321	-0.134158	0.433433	-0.349931	-0.114858	0.430498	-0.472161	-0.221738	0.297228	-0.340134	-0.249924	0.264268	-0.347743	-0.197468	0.233677	-0.359974	-0.175468	0.266861	-0.354410	-0.358278	0.081870	-0.433510	-0.201661	0.034570	-0.354669	-0.150516	0.047478	-0.426149	-0.120553	0.036703	-0.421082	-0.233357	0.733330	-0.705689	-0.204214	0.679857	-0.716653	-0.148464	0.707765	-0.734276	-0.169403	0.764061	-0.726065	-0.149241	0.454769	-0.711357	-0.115740	0.441913	-0.592216	-0.273439	0.265645	-0.695542	-0.292663	0.231945	-0.683424	-0.236987	0.204548	-0.694245	-0.224605	0.245111	-0.705803	-0.366674	0.072907	-0.607132	-0.220035	0.038154	-0.714036	-0.161224	0.049824	-0.650914	-0.131388	0.036970	-0.663650	
627	3.1350	-0.253618	1.454304	-0.502444	-0.215289	1.443558	-0.699044	-0.193755	1.440941	-0.320281	-0.099473	1.415707	-0.521856	-0.112689	0.939926	-0.405327	-0.133502	0.945080	-0.639142	-0.184849	1.012028	-0.346703	-0.203706	1.020774	-0.678163	-0.298220	0.994811	-0.468328	-0.302828	1.000306	-0.545358	-0.301109	0.994549	-0.505647	-0.190169	0.761059	-0.322402	-0.171038	0.705051	-0.317554	-0.108824	0.724200	-0.320467	-0.121594	0.784052	-0.326397	-0.137090	0.436971	-0.350103	-0.118000	0.434057	-0.472343	-0.223761	0.300099	-0.339874	-0.251547	0.266723	-0.347645	-0.198807	0.236557	-0.359654	-0.177115	0.269931	-0.354214	-0.357899	0.083738	-0.433048	-0.201506	0.034596	-0.354793	-0.150424	0.047459	-0.426177	-0.120552	0.036706	-0.421183	-0.233790	0.738066	-0.705570	-0.205087	0.684365	-0.716552	-0.149108	0.711815	-0.734175	-0.169586	0.768274	-0.725954	-0.152059	0.458582	-0.711084	-0.118451	0.445599	-0.591996	-0.274895	0.268249	-0.695544	-0.293795	0.234373	-0.683441	-0.237940	0.207465	-0.694497	-0.225928	0.248143	-0.706020	-0.366153	0.075269	-0.607564	-0.219814	0.038252	-0.713960	-0.161119	0.049785	-0.650931	-0.131383	0.036969	-0.663582	
628	3.1400	-0.254052	1.458731	-0.502410	-0.215896	1.448604	-0.698714	-0.194289	1.445838	-0.320527	-0.099855	1.420900	-0.521881	-0.111605	0.944284	-0.405407	-0.132534	0.949688	-0.639010	-0.182878	1.017175	-0.346905	-0.202408	1.025860	-0.678118	-0.297085	0.999570	-0.468163	-0.301734	1.005101	-0.545277	-0.300043	0.999185	-0.505546	-0.190215	0.765609	-0.322500	-0.171576	0.709491	-0.317706	-0.109204	0.728140	-0.320583	-0.121478	0.788099	-0.326474	-0.140037	0.440729	-0.350278	-0.121136	0.437797	-0.472544	-0.225910	0.303272	-0.339416	-0.253194	0.269447	-0.347602	-0.200181	0.239706	-0.359324	-0.178787	0.273264	-0.353992	-0.357432	0.085886	-0.432576	-0.201320	0.034649	-0.354927	-0.150313	0.047439	-0.426211	-0.120551	0.036714	-0.421294	-0.234220	0.743041	-0.705475	-0.205940	0.689124	-0.716475	-0.149745	0.716128	-0.734088	-0.169778	0.772744	-0.725864	-0.154793	0.462683	-0.710798	-0.121173	0.449542	-0.591747	-0.276335	0.271101	-0.695540	-0.294905	0.237050	-0.683453	-0.238886	0.210635	-0.694790	-0.227245	0.251435	-0.706268	-0.365530	0.077905	-0.608058	-0.219555	0.038384	-0.713898	-0.161000	0.049741	-0.650960	-0.131379	0.036968	-0.663505	
629	3.1450	-0.254479	1.463298	-0.502383	-0.216496	1.453776	-0.698376	-0.194903	1.450877	-0.320802	-0.100253	1.426254	-0.521900	-0.110584	0.948753	-0.405523	-0.131622	0.954458	-0.638902	-0.180885	1.022434	-0.347150	-0.201116	1.031161	-0.678078	-0.295958	1.004499	-0.468019	-0.300668	1.010098	-0.545200	-0.299004	1.004029	-0.505462	-0.190292	0.770348	-0.322635	-0.172121	0.714089	-0.317874	-0.109598	0.732243	-0.320689	-0.121380	0.792296	-0.326548	-0.142997	0.444710	-0.350436	-0.124227	0.441691	-0.472746	-0.228178	0.306709	-0.338725	-0.254846	0.272393	-0.347607	-0.201566	0.243077	-0.358949	-0.180456	0.276820	-0.353720	-0.356869	0.088307	-0.432101	-0.201098	0.034737	-0.355067	-0.150185	0.047420	-0.426248	-0.120547	0.036720	-0.421423	-0.234628	0.748224	-0.705412	-0.206744	0.694095	-0.716420	-0.150345	0.720685	-0.734013	-0.169962	0.777442	-0.725784	-0.157463	0.467049	-0.710496	-0.123884	0.453715	-0.591461	-0.277758	0.274194	-0.695525	-0.295983	0.239957	-0.683459	-0.239822	0.214053	-0.695148	-0.228562	0.254979	-0.706549	-0.364803	0.080777	-0.608632	-0.219258	0.038552	-0.713859	-0.160872	0.049698	-0.651009	-0.131378	0.036967	-0.663421	
630	3.1500	-0.254891	1.467981	-0.502359	-0.217074	1.459042	-0.698031	-0.195565	1.456020	-0.321124	-0.100661	1.431735	-0.521912	-0.109619	0.953335	-0.405671	-0.130774	0.959380	-0.638829	-0.178905	1.027762	-0.347436	-0.199842	1.036645	-0.678046	-0.294841	1.009572	-0.467896	-0.299631	1.015270	-0.545126	-0.297996	1.009059	-0.505385	-0.190388	0.775215	-0.322777	-0.172676	0.718821	-0.318049	-0.110009	0.736487	-0.320796	-0.121305	0.796616	-0.326624	-0.145933	0.448892	-0.350559	-0.127241	0.445734	-0.472933	-0.230366	0.310219	-0.338150	-0.256476	0.275516	-0.347638	-0.202933	0.246641	-0.358529	-0.182103	0.280584	-0.353391	-0.356197	0.090977	-0.431624	-0.200838	0.034861	-0.355210	-0.150031	0.047401	-0.426291	-0.120539	0.036726	-0.421566	-0.235004	0.753568	-0.705377	-0.207489	0.699248	-0.716380	-0.150900	0.725449	-0.733950	-0.170129	0.782336	-0.725721	-0.160102	0.471636	-0.710176	-0.126566	0.458105	-0.591139	-0.279159	0.277502	-0.695491	-0.297027	0.243068	-0.683454	-0.240740	0.217693	-0.695583	-0.229869	0.258743	-0.706871	-0.363964	0.083854	-0.609273	-0.218931	0.038752	-0.713849	-0.160740	0.049656	-0.651083	-0.131384	0.036966	-0.663333	
631	3.1550	-0.255286	1.472749	-0.502335	-0.217622	1.464370	-0.697683	-0.196220	1.461257	-0.321410	-0.101073	1.437306	-0.521913	-0.108714	0.958027	-0.405851	-0.129990	0.964437	-0.638795	-0.176967	1.033131	-0.347750	-0.198582	1.042283	-0.678014	-0.293763	1.014798	-0.467767	-0.298623	1.020585	-0.545054	-0.297018	1.014243	-0.505314	-0.190517	0.780193	-0.322930	-0.173241	0.723662	-0.318212	-0.110432	0.740844	-0.320888	-0.121262	0.801058	-0.326703	-0.148823	0.453247	-0.350628	-0.130150	0.449917	-0.473091	-0.232407	0.313794	-0.337736	-0.258051	0.278775	-0.347657	-0.204262	0.250367	-0.358063	-0.183706	0.284520	-0.352999	-0.355408	0.093846	-0.431098	-0.200535	0.035022	-0.355350	-0.149852	0.047385	-0.426342	-0.120530	0.036734	-0.421717	-0.235345	0.759040	-0.705366	-0.208168	0.704541	-0.716360	-0.151405	0.730381	-0.733900	-0.170277	0.787388	-0.725668	-0.162727	0.476391	-0.709840	-0.129207	0.462668	-0.590773	-0.280528	0.280983	-0.695440	-0.298024	0.246340	-0.683441	-0.241615	0.221506	-0.696090	-0.231157	0.262690	-0.707228	-0.363021	0.087116	-0.609987	-0.218588	0.038971	-0.713863	-0.160604	0.049616	-0.651184	-0.131397	0.036966	-0.663244	
632	3.1600	-0.255655	1.477584	-0.502307	-0.218131	1.469734	-0.697329	-0.196829	1.466550	-0.321667	-0.101486	1.442935	-0.521901	-0.107853	0.962817	-0.406055	-0.129268	0.969605	-0.638803	-0.175098	1.038532	-0.348072	-0.197347	1.048044	-0.677979	-0.292716	1.020134	-0.467642	-0.297646	1.026012	-0.544985	-0.296071	1.019543	-0.505244	-0.190671	0.785247	-0.323076	-0.173814	0.728588	-0.318370	-0.110873	0.745301	-0.320977	-0.121251	0.805592	-0.326787	-0.151663	0.457745	-0.350648	-0.132931	0.454235	-0.473214	-0.234289	0.317429	-0.337462	-0.259553	0.282159	-0.347666	-0.205525	0.254220	-0.357562	-0.185234	0.288606	-0.352530	-0.354508	0.096903	-0.430539	-0.200189	0.035224	-0.355483	-0.149652	0.047370	-0.426394	-0.120523	0.036746	-0.421873	-0.235654	0.764604	-0.705374	-0.208789	0.709931	-0.716352	-0.151863	0.735444	-0.733854	-0.170406	0.792555	-0.725627	-0.165350	0.481256	-0.709490	-0.131803	0.467385	-0.590368	-0.281843	0.284584	-0.695372	-0.298947	0.249723	-0.683424	-0.242430	0.225439	-0.696661	-0.232410	0.266766	-0.707621	-0.361971	0.090523	-0.610771	-0.218234	0.039207	-0.713907	-0.160468	0.049579	-0.651317	-0.131417	0.036966	-0.663159	
633	3.1650	-0.255993	1.482460	-0.502272	-0.218591	1.475113	-0.696969	-0.197371	1.471851	-0.321902	-0.101902	1.448582	-0.521877	-0.107037	0.967686	-0.406278	-0.128605	0.974861	-0.638851	-0.173317	1.043957	-0.348386	-0.196142	1.053890	-0.677930	-0.291680	1.025525	-0.467536	-0.296698	1.031520	-0.544915	-0.295158	1.024923	-0.505173	-0.190854	0.790407	-0.323235	-0.174383	0.733588	-0.318503	-0.111328	0.749837	-0.321067	-0.121263	0.810204	-0.326876	-0.154441	0.462353	-0.350620	-0.135579	0.458658	-0.473291	-0.235997	0.321095	-0.337284	-0.260947	0.285614	-0.347646	-0.206682	0.258184	-0.357029	-0.186673	0.292804	-0.351980	-0.353488	0.100111	-0.429950	-0.199803	0.035464	-0.355598	-0.149434	0.047356	-0.426442	-0.120516	0.036760	-0.422028	-0.235937	0.770210	-0.705390	-0.209364	0.715388	-0.716346	-0.152286	0.740598	-0.733807	-0.170520	0.797801	-0.725589	-0.167977	0.486179	-0.709129	-0.134348	0.472219	-0.589928	-0.283082	0.288255	-0.695293	-0.299778	0.253169	-0.683417	-0.243161	0.229457	-0.697297	-0.233599	0.270933	-0.708051	-0.360812	0.094022	-0.611601	-0.217875	0.039456	-0.713982	-0.160335	0.049550	-0.651488	-0.131444	0.036968	-0.663085	
634	3.1700	-0.256300	1.487351	-0.502229	-0.218998	1.480478	-0.696602	-0.197835	1.477134	-0.322104	-0.102317	1.454215	-0.521839	-0.106241	0.972629	-0.406507	-0.127994	0.980173	-0.638939	-0.171647	1.049397	-0.348678	-0.194974	1.059796	-0.677866	-0.290686	1.030991	-0.467420	-0.295781	1.037077	-0.544846	-0.294272	1.030365	-0.505101	-0.191024	0.795561	-0.323345	-0.174946	0.738641	-0.318607	-0.111785	0.754440	-0.321148	-0.121295	0.814868	-0.326970	-0.157144	0.467021	-0.350547	-0.138089	0.463163	-0.473326	-0.237522	0.324776	-0.337204	-0.262233	0.289124	-0.347601	-0.207710	0.262231	-0.356474	-0.188015	0.297086	-0.351375	-0.352334	0.103409	-0.429293	-0.199386	0.035736	-0.355683	-0.149203	0.047345	-0.426479	-0.120510	0.036778	-0.422179	-0.236210	0.775832	-0.705404	-0.209915	0.720879	-0.716343	-0.152692	0.745794	-0.733760	-0.170632	0.803086	-0.725554	-0.170596	0.491109	-0.708761	-0.136834	0.477132	-0.589464	-0.284222	0.291947	-0.695209	-0.300498	0.256637	-0.683424	-0.243791	0.233508	-0.697986	-0.234695	0.275138	-0.708513	-0.359549	0.097590	-0.612454	-0.217520	0.039710	-0.714090	-0.160200	0.049532	-0.651698	-0.131477	0.036973	-0.663023	
